<svg xmlns="http://www.w3.org/2000/svg" xmlns:xlink="http://www.w3.org/1999/xlink" width="750" zoomAndPan="magnify" viewBox="0 0 562.5 809.999993" height="1080" preserveAspectRatio="xMidYMid meet" version="1.0"><defs><clipPath id="be81f2ea0d"><path d="M 0 0.359375 L 562 0.359375 L 562 809.640625 L 0 809.640625 Z M 0 0.359375 " clip-rule="nonzero"/></clipPath><linearGradient x1="0" gradientTransform="matrix(0.75, 0, 0, 0.75, 0, 0.359697)" y1="0" x2="0" gradientUnits="userSpaceOnUse" y2="1079.040797" id="7e2afde663"><stop stop-opacity="1" stop-color="rgb(76.899719%, 44.299316%, 92.89856%)" offset="0"/><stop stop-opacity="1" stop-color="rgb(76.756287%, 44.163513%, 92.776489%)" offset="0.0078125"/><stop stop-opacity="1" stop-color="rgb(76.470947%, 43.894958%, 92.532349%)" offset="0.015625"/><stop stop-opacity="1" stop-color="rgb(76.187134%, 43.624878%, 92.288208%)" offset="0.0234375"/><stop stop-opacity="1" stop-color="rgb(75.901794%, 43.356323%, 92.044067%)" offset="0.03125"/><stop stop-opacity="1" stop-color="rgb(75.616455%, 43.087769%, 91.799927%)" offset="0.0390625"/><stop stop-opacity="1" stop-color="rgb(75.331116%, 42.817688%, 91.555786%)" offset="0.046875"/><stop stop-opacity="1" stop-color="rgb(75.047302%, 42.549133%, 91.311646%)" offset="0.0546875"/><stop stop-opacity="1" stop-color="rgb(74.761963%, 42.279053%, 91.067505%)" offset="0.0625"/><stop stop-opacity="1" stop-color="rgb(74.476624%, 42.010498%, 90.821838%)" offset="0.0703125"/><stop stop-opacity="1" stop-color="rgb(74.19281%, 41.740417%, 90.577698%)" offset="0.078125"/><stop stop-opacity="1" stop-color="rgb(73.907471%, 41.471863%, 90.333557%)" offset="0.0859375"/><stop stop-opacity="1" stop-color="rgb(73.622131%, 41.201782%, 90.089417%)" offset="0.09375"/><stop stop-opacity="1" stop-color="rgb(73.336792%, 40.933228%, 89.845276%)" offset="0.101562"/><stop stop-opacity="1" stop-color="rgb(73.052979%, 40.663147%, 89.601135%)" offset="0.109375"/><stop stop-opacity="1" stop-color="rgb(72.767639%, 40.394592%, 89.356995%)" offset="0.117188"/><stop stop-opacity="1" stop-color="rgb(72.4823%, 40.124512%, 89.112854%)" offset="0.125"/><stop stop-opacity="1" stop-color="rgb(72.198486%, 39.855957%, 88.868713%)" offset="0.132813"/><stop stop-opacity="1" stop-color="rgb(71.913147%, 39.585876%, 88.623047%)" offset="0.140625"/><stop stop-opacity="1" stop-color="rgb(71.627808%, 39.317322%, 88.378906%)" offset="0.148438"/><stop stop-opacity="1" stop-color="rgb(71.342468%, 39.047241%, 88.134766%)" offset="0.15625"/><stop stop-opacity="1" stop-color="rgb(71.058655%, 38.778687%, 87.890625%)" offset="0.164063"/><stop stop-opacity="1" stop-color="rgb(70.773315%, 38.508606%, 87.646484%)" offset="0.171875"/><stop stop-opacity="1" stop-color="rgb(70.487976%, 38.240051%, 87.402344%)" offset="0.179688"/><stop stop-opacity="1" stop-color="rgb(70.204163%, 37.969971%, 87.158203%)" offset="0.1875"/><stop stop-opacity="1" stop-color="rgb(69.918823%, 37.701416%, 86.914062%)" offset="0.195312"/><stop stop-opacity="1" stop-color="rgb(69.633484%, 37.431335%, 86.668396%)" offset="0.203125"/><stop stop-opacity="1" stop-color="rgb(69.348145%, 37.162781%, 86.424255%)" offset="0.210938"/><stop stop-opacity="1" stop-color="rgb(69.064331%, 36.8927%, 86.180115%)" offset="0.21875"/><stop stop-opacity="1" stop-color="rgb(68.778992%, 36.624146%, 85.935974%)" offset="0.226562"/><stop stop-opacity="1" stop-color="rgb(68.493652%, 36.354065%, 85.691833%)" offset="0.234375"/><stop stop-opacity="1" stop-color="rgb(68.209839%, 36.08551%, 85.447693%)" offset="0.242188"/><stop stop-opacity="1" stop-color="rgb(67.9245%, 35.81543%, 85.203552%)" offset="0.25"/><stop stop-opacity="1" stop-color="rgb(67.63916%, 35.546875%, 84.959412%)" offset="0.257813"/><stop stop-opacity="1" stop-color="rgb(67.353821%, 35.27832%, 84.715271%)" offset="0.265625"/><stop stop-opacity="1" stop-color="rgb(67.070007%, 35.00824%, 84.469604%)" offset="0.273438"/><stop stop-opacity="1" stop-color="rgb(66.784668%, 34.739685%, 84.225464%)" offset="0.28125"/><stop stop-opacity="1" stop-color="rgb(66.499329%, 34.469604%, 83.981323%)" offset="0.289063"/><stop stop-opacity="1" stop-color="rgb(66.215515%, 34.20105%, 83.737183%)" offset="0.296875"/><stop stop-opacity="1" stop-color="rgb(65.930176%, 33.930969%, 83.493042%)" offset="0.304688"/><stop stop-opacity="1" stop-color="rgb(65.644836%, 33.662415%, 83.248901%)" offset="0.3125"/><stop stop-opacity="1" stop-color="rgb(65.359497%, 33.392334%, 83.004761%)" offset="0.320313"/><stop stop-opacity="1" stop-color="rgb(65.075684%, 33.123779%, 82.76062%)" offset="0.328125"/><stop stop-opacity="1" stop-color="rgb(64.790344%, 32.853699%, 82.516479%)" offset="0.335938"/><stop stop-opacity="1" stop-color="rgb(64.505005%, 32.585144%, 82.270813%)" offset="0.34375"/><stop stop-opacity="1" stop-color="rgb(64.221191%, 32.315063%, 82.026672%)" offset="0.351563"/><stop stop-opacity="1" stop-color="rgb(63.935852%, 32.046509%, 81.782532%)" offset="0.359375"/><stop stop-opacity="1" stop-color="rgb(63.650513%, 31.776428%, 81.538391%)" offset="0.367188"/><stop stop-opacity="1" stop-color="rgb(63.365173%, 31.507874%, 81.29425%)" offset="0.375"/><stop stop-opacity="1" stop-color="rgb(63.08136%, 31.237793%, 81.05011%)" offset="0.382812"/><stop stop-opacity="1" stop-color="rgb(62.796021%, 30.969238%, 80.805969%)" offset="0.390625"/><stop stop-opacity="1" stop-color="rgb(62.510681%, 30.699158%, 80.561829%)" offset="0.398438"/><stop stop-opacity="1" stop-color="rgb(62.226868%, 30.430603%, 80.317688%)" offset="0.40625"/><stop stop-opacity="1" stop-color="rgb(61.941528%, 30.160522%, 80.072021%)" offset="0.414062"/><stop stop-opacity="1" stop-color="rgb(61.656189%, 29.891968%, 79.827881%)" offset="0.421875"/><stop stop-opacity="1" stop-color="rgb(61.37085%, 29.621887%, 79.58374%)" offset="0.429688"/><stop stop-opacity="1" stop-color="rgb(61.087036%, 29.353333%, 79.3396%)" offset="0.4375"/><stop stop-opacity="1" stop-color="rgb(60.801697%, 29.083252%, 79.095459%)" offset="0.445312"/><stop stop-opacity="1" stop-color="rgb(60.516357%, 28.814697%, 78.851318%)" offset="0.453125"/><stop stop-opacity="1" stop-color="rgb(60.232544%, 28.544617%, 78.607178%)" offset="0.460938"/><stop stop-opacity="1" stop-color="rgb(59.947205%, 28.276062%, 78.363037%)" offset="0.46875"/><stop stop-opacity="1" stop-color="rgb(59.661865%, 28.005981%, 78.118896%)" offset="0.476562"/><stop stop-opacity="1" stop-color="rgb(59.376526%, 27.737427%, 77.87323%)" offset="0.484375"/><stop stop-opacity="1" stop-color="rgb(59.092712%, 27.468872%, 77.629089%)" offset="0.492188"/><stop stop-opacity="1" stop-color="rgb(58.807373%, 27.198792%, 77.384949%)" offset="0.5"/><stop stop-opacity="1" stop-color="rgb(58.522034%, 26.930237%, 77.140808%)" offset="0.507813"/><stop stop-opacity="1" stop-color="rgb(58.23822%, 26.660156%, 76.896667%)" offset="0.515625"/><stop stop-opacity="1" stop-color="rgb(57.952881%, 26.391602%, 76.652527%)" offset="0.523438"/><stop stop-opacity="1" stop-color="rgb(57.667542%, 26.121521%, 76.408386%)" offset="0.53125"/><stop stop-opacity="1" stop-color="rgb(57.382202%, 25.852966%, 76.164246%)" offset="0.539063"/><stop stop-opacity="1" stop-color="rgb(57.098389%, 25.582886%, 75.918579%)" offset="0.546875"/><stop stop-opacity="1" stop-color="rgb(56.813049%, 25.314331%, 75.674438%)" offset="0.554688"/><stop stop-opacity="1" stop-color="rgb(56.52771%, 25.04425%, 75.430298%)" offset="0.5625"/><stop stop-opacity="1" stop-color="rgb(56.243896%, 24.775696%, 75.186157%)" offset="0.570313"/><stop stop-opacity="1" stop-color="rgb(55.958557%, 24.505615%, 74.942017%)" offset="0.578125"/><stop stop-opacity="1" stop-color="rgb(55.673218%, 24.237061%, 74.697876%)" offset="0.585938"/><stop stop-opacity="1" stop-color="rgb(55.387878%, 23.96698%, 74.453735%)" offset="0.59375"/><stop stop-opacity="1" stop-color="rgb(55.104065%, 23.698425%, 74.209595%)" offset="0.601563"/><stop stop-opacity="1" stop-color="rgb(54.818726%, 23.428345%, 73.965454%)" offset="0.609375"/><stop stop-opacity="1" stop-color="rgb(54.533386%, 23.15979%, 73.719788%)" offset="0.617188"/><stop stop-opacity="1" stop-color="rgb(54.249573%, 22.889709%, 73.475647%)" offset="0.625"/><stop stop-opacity="1" stop-color="rgb(53.964233%, 22.621155%, 73.231506%)" offset="0.632813"/><stop stop-opacity="1" stop-color="rgb(53.678894%, 22.351074%, 72.987366%)" offset="0.640625"/><stop stop-opacity="1" stop-color="rgb(53.393555%, 22.08252%, 72.743225%)" offset="0.648438"/><stop stop-opacity="1" stop-color="rgb(53.109741%, 21.812439%, 72.499084%)" offset="0.65625"/><stop stop-opacity="1" stop-color="rgb(52.824402%, 21.543884%, 72.254944%)" offset="0.664063"/><stop stop-opacity="1" stop-color="rgb(52.539062%, 21.273804%, 72.010803%)" offset="0.671875"/><stop stop-opacity="1" stop-color="rgb(52.255249%, 21.005249%, 71.766663%)" offset="0.679688"/><stop stop-opacity="1" stop-color="rgb(51.96991%, 20.735168%, 71.520996%)" offset="0.6875"/><stop stop-opacity="1" stop-color="rgb(51.68457%, 20.466614%, 71.276855%)" offset="0.695313"/><stop stop-opacity="1" stop-color="rgb(51.399231%, 20.196533%, 71.032715%)" offset="0.703125"/><stop stop-opacity="1" stop-color="rgb(51.115417%, 19.927979%, 70.788574%)" offset="0.710938"/><stop stop-opacity="1" stop-color="rgb(50.830078%, 19.659424%, 70.544434%)" offset="0.71875"/><stop stop-opacity="1" stop-color="rgb(50.544739%, 19.389343%, 70.300293%)" offset="0.726563"/><stop stop-opacity="1" stop-color="rgb(50.260925%, 19.120789%, 70.056152%)" offset="0.734375"/><stop stop-opacity="1" stop-color="rgb(49.975586%, 18.850708%, 69.812012%)" offset="0.742188"/><stop stop-opacity="1" stop-color="rgb(49.690247%, 18.582153%, 69.567871%)" offset="0.75"/><stop stop-opacity="1" stop-color="rgb(49.404907%, 18.312073%, 69.322205%)" offset="0.757812"/><stop stop-opacity="1" stop-color="rgb(49.121094%, 18.043518%, 69.078064%)" offset="0.765625"/><stop stop-opacity="1" stop-color="rgb(48.835754%, 17.773438%, 68.833923%)" offset="0.773438"/><stop stop-opacity="1" stop-color="rgb(48.550415%, 17.504883%, 68.589783%)" offset="0.78125"/><stop stop-opacity="1" stop-color="rgb(48.266602%, 17.234802%, 68.345642%)" offset="0.789062"/><stop stop-opacity="1" stop-color="rgb(47.981262%, 16.966248%, 68.101501%)" offset="0.796875"/><stop stop-opacity="1" stop-color="rgb(47.695923%, 16.696167%, 67.857361%)" offset="0.804688"/><stop stop-opacity="1" stop-color="rgb(47.410583%, 16.427612%, 67.61322%)" offset="0.8125"/><stop stop-opacity="1" stop-color="rgb(47.12677%, 16.157532%, 67.36908%)" offset="0.820312"/><stop stop-opacity="1" stop-color="rgb(46.841431%, 15.888977%, 67.123413%)" offset="0.828125"/><stop stop-opacity="1" stop-color="rgb(46.556091%, 15.618896%, 66.879272%)" offset="0.835938"/><stop stop-opacity="1" stop-color="rgb(46.272278%, 15.350342%, 66.635132%)" offset="0.84375"/><stop stop-opacity="1" stop-color="rgb(45.986938%, 15.080261%, 66.390991%)" offset="0.851562"/><stop stop-opacity="1" stop-color="rgb(45.701599%, 14.811707%, 66.146851%)" offset="0.859375"/><stop stop-opacity="1" stop-color="rgb(45.41626%, 14.541626%, 65.90271%)" offset="0.867188"/><stop stop-opacity="1" stop-color="rgb(45.132446%, 14.273071%, 65.658569%)" offset="0.875"/><stop stop-opacity="1" stop-color="rgb(44.847107%, 14.002991%, 65.414429%)" offset="0.882812"/><stop stop-opacity="1" stop-color="rgb(44.561768%, 13.734436%, 65.168762%)" offset="0.890625"/><stop stop-opacity="1" stop-color="rgb(44.277954%, 13.464355%, 64.924622%)" offset="0.898438"/><stop stop-opacity="1" stop-color="rgb(43.992615%, 13.195801%, 64.680481%)" offset="0.90625"/><stop stop-opacity="1" stop-color="rgb(43.707275%, 12.92572%, 64.43634%)" offset="0.914062"/><stop stop-opacity="1" stop-color="rgb(43.421936%, 12.657166%, 64.1922%)" offset="0.921875"/><stop stop-opacity="1" stop-color="rgb(43.138123%, 12.387085%, 63.948059%)" offset="0.929688"/><stop stop-opacity="1" stop-color="rgb(42.852783%, 12.11853%, 63.703918%)" offset="0.9375"/><stop stop-opacity="1" stop-color="rgb(42.567444%, 11.84845%, 63.459778%)" offset="0.945312"/><stop stop-opacity="1" stop-color="rgb(42.28363%, 11.579895%, 63.215637%)" offset="0.953125"/><stop stop-opacity="1" stop-color="rgb(41.998291%, 11.31134%, 62.969971%)" offset="0.960938"/><stop stop-opacity="1" stop-color="rgb(41.712952%, 11.04126%, 62.72583%)" offset="0.96875"/><stop stop-opacity="1" stop-color="rgb(41.427612%, 10.772705%, 62.481689%)" offset="0.976562"/><stop stop-opacity="1" stop-color="rgb(41.143799%, 10.502625%, 62.237549%)" offset="0.984375"/><stop stop-opacity="1" stop-color="rgb(40.858459%, 10.23407%, 61.993408%)" offset="0.992188"/><stop stop-opacity="1" stop-color="rgb(40.57312%, 9.963989%, 61.749268%)" offset="1"/></linearGradient><clipPath id="1c2b4e28af"><path d="M 0 262 L 562 262 L 562 474.363281 L 0 474.363281 Z M 0 262 " clip-rule="nonzero"/></clipPath><clipPath id="b4357bbb06"><path d="M 0 279 L 562 279 L 562 474.363281 L 0 474.363281 Z M 0 279 " clip-rule="nonzero"/></clipPath><clipPath id="9c9f5a61fa"><path d="M 0 335 L 562 335 L 562 474.363281 L 0 474.363281 Z M 0 335 " clip-rule="nonzero"/></clipPath><clipPath id="ea864875b3"><path d="M 0 361 L 562 361 L 562 474.363281 L 0 474.363281 Z M 0 361 " clip-rule="nonzero"/></clipPath><clipPath id="1e9ebb0a0d"><path d="M 0 404 L 562 404 L 562 474.363281 L 0 474.363281 Z M 0 404 " clip-rule="nonzero"/></clipPath></defs><g clip-path="url(#be81f2ea0d)"><path fill="#ffffff" d="M 0 0.359375 L 562.5 0.359375 L 562.5 810.359375 L 0 810.359375 Z M 0 0.359375 " fill-opacity="1" fill-rule="nonzero"/><path fill="url(#7e2afde663)" d="M 0 0.359375 L 0 809.640625 L 562 809.640625 L 562 0.359375 Z M 0 0.359375 " fill-rule="nonzero"/></g><g clip-path="url(#1c2b4e28af)"><path fill="#7432bb" d="M -10.054688 263.253906 L 3.617188 262.808594 C 17.289062 262.425781 44.628906 261.539062 71.839844 271.703125 C 99.117188 281.867188 126.207031 303.089844 153.484375 306.585938 C 180.695312 310.078125 208.039062 295.847656 235.25 296.480469 C 262.527344 297.117188 289.613281 312.621094 316.890625 319.988281 C 344.105469 327.425781 371.445312 326.789062 398.660156 317.386719 C 425.9375 307.917969 453.023438 289.746094 480.300781 279.898438 C 507.515625 270.050781 534.855469 268.527344 548.527344 267.828125 L 562.195312 267.066406 L 562.195312 474.191406 L 548.527344 474.191406 C 534.855469 474.191406 507.515625 474.191406 480.300781 474.191406 C 453.023438 474.191406 425.9375 474.191406 398.660156 474.191406 C 371.445312 474.191406 344.105469 474.191406 316.890625 474.191406 C 289.613281 474.191406 262.527344 474.191406 235.25 474.191406 C 208.039062 474.191406 180.695312 474.191406 153.484375 474.191406 C 126.207031 474.191406 99.117188 474.191406 71.839844 474.191406 C 44.628906 474.191406 17.289062 474.191406 3.617188 474.191406 L -10.054688 474.191406 Z M -10.054688 263.253906 " fill-opacity="1" fill-rule="nonzero"/></g><g clip-path="url(#b4357bbb06)"><path fill="#3d1964" d="M -10.054688 279.773438 L 3.617188 289.746094 C 17.289062 299.660156 44.628906 319.609375 71.839844 322.023438 C 99.117188 324.4375 126.207031 309.441406 153.484375 306.265625 C 180.695312 303.089844 208.039062 311.730469 235.25 309.316406 C 262.527344 306.902344 289.613281 293.304688 316.890625 295.65625 C 344.105469 298.007812 371.445312 316.179688 398.660156 324.566406 C 425.9375 332.953125 453.023438 331.425781 480.300781 334.09375 C 507.515625 336.761719 534.855469 343.5 548.527344 346.929688 L 562.195312 350.296875 L 562.195312 474.191406 L 548.527344 474.191406 C 534.855469 474.191406 507.515625 474.191406 480.300781 474.191406 C 453.023438 474.191406 425.9375 474.191406 398.660156 474.191406 C 371.445312 474.191406 344.105469 474.191406 316.890625 474.191406 C 289.613281 474.191406 262.527344 474.191406 235.25 474.191406 C 208.039062 474.191406 180.695312 474.191406 153.484375 474.191406 C 126.207031 474.191406 99.117188 474.191406 71.839844 474.191406 C 44.628906 474.191406 17.289062 474.191406 3.617188 474.191406 L -10.054688 474.191406 Z M -10.054688 279.773438 " fill-opacity="1" fill-rule="nonzero"/></g><g clip-path="url(#9c9f5a61fa)"><path fill="#280f44" d="M -10.054688 336.953125 L 3.617188 340.257812 C 17.289062 343.5 44.628906 350.105469 71.839844 349.472656 C 99.117188 348.835938 126.207031 340.957031 153.484375 344.132812 C 180.695312 347.308594 208.039062 361.542969 235.25 370.183594 C 262.527344 378.886719 289.613281 382.0625 316.890625 377.617188 C 344.105469 373.167969 371.445312 361.097656 398.660156 351.121094 C 425.9375 341.210938 453.023438 333.332031 480.300781 336.320312 C 507.515625 339.304688 534.855469 353.027344 548.527344 359.953125 L 562.195312 366.816406 L 562.195312 474.191406 L 548.527344 474.191406 C 534.855469 474.191406 507.515625 474.191406 480.300781 474.191406 C 453.023438 474.191406 425.9375 474.191406 398.660156 474.191406 C 371.445312 474.191406 344.105469 474.191406 316.890625 474.191406 C 289.613281 474.191406 262.527344 474.191406 235.25 474.191406 C 208.039062 474.191406 180.695312 474.191406 153.484375 474.191406 C 126.207031 474.191406 99.117188 474.191406 71.839844 474.191406 C 44.628906 474.191406 17.289062 474.191406 3.617188 474.191406 L -10.054688 474.191406 Z M -10.054688 336.953125 " fill-opacity="1" fill-rule="nonzero"/></g><g clip-path="url(#ea864875b3)"><path fill="#18072b" d="M -10.054688 362.367188 L 3.617188 362.050781 C 17.289062 361.734375 44.628906 361.097656 71.839844 365.226562 C 99.117188 369.355469 126.207031 378.253906 153.484375 384.921875 C 180.695312 391.59375 208.039062 396.042969 235.25 394.960938 C 262.527344 393.945312 289.613281 387.335938 316.890625 388.101562 C 344.105469 388.863281 371.445312 396.867188 398.660156 401.253906 C 425.9375 405.574219 453.023438 406.207031 480.300781 403.222656 C 507.515625 400.300781 534.855469 393.691406 548.527344 390.449219 L 562.195312 387.148438 L 562.195312 474.191406 L 548.527344 474.191406 C 534.855469 474.191406 507.515625 474.191406 480.300781 474.191406 C 453.023438 474.191406 425.9375 474.191406 398.660156 474.191406 C 371.445312 474.191406 344.105469 474.191406 316.890625 474.191406 C 289.613281 474.191406 262.527344 474.191406 235.25 474.191406 C 208.039062 474.191406 180.695312 474.191406 153.484375 474.191406 C 126.207031 474.191406 99.117188 474.191406 71.839844 474.191406 C 44.628906 474.191406 17.289062 474.191406 3.617188 474.191406 L -10.054688 474.191406 Z M -10.054688 362.367188 " fill-opacity="1" fill-rule="nonzero"/></g><g clip-path="url(#1e9ebb0a0d)"><path fill="#000000" d="M -10.054688 415.101562 L 3.617188 420.058594 C 17.289062 425.078125 44.628906 434.988281 71.839844 433.847656 C 99.117188 432.703125 126.207031 420.375 153.484375 417.007812 C 180.695312 413.640625 208.039062 419.105469 235.25 419.105469 C 262.527344 419.105469 289.613281 413.640625 316.890625 413.070312 C 344.105469 412.5625 371.445312 417.007812 398.660156 418.597656 C 425.9375 420.1875 453.023438 418.914062 480.300781 416.183594 C 507.515625 413.386719 534.855469 409.195312 548.527344 407.035156 L 562.195312 404.9375 L 562.195312 474.191406 L 548.527344 474.191406 C 534.855469 474.191406 507.515625 474.191406 480.300781 474.191406 C 453.023438 474.191406 425.9375 474.191406 398.660156 474.191406 C 371.445312 474.191406 344.105469 474.191406 316.890625 474.191406 C 289.613281 474.191406 262.527344 474.191406 235.25 474.191406 C 208.039062 474.191406 180.695312 474.191406 153.484375 474.191406 C 126.207031 474.191406 99.117188 474.191406 71.839844 474.191406 C 44.628906 474.191406 17.289062 474.191406 3.617188 474.191406 L -10.054688 474.191406 Z M -10.054688 415.101562 " fill-opacity="1" fill-rule="nonzero"/></g></svg>